<svg xmlns="http://www.w3.org/2000/svg" viewBox="0 0 32 32" fill="none">
  <defs>
    <linearGradient id="g" x1="6" y1="4" x2="26" y2="28" gradientUnits="userSpaceOnUse">
      <stop stop-color="#6366f1"/>
      <stop offset="0.45" stop-color="#d946ef"/>
      <stop offset="1" stop-color="#06b6d4"/>
    </linearGradient>
  </defs>
  <rect width="32" height="32" rx="8" fill="url(#g)"/>
  <path
    fill="#fff"
    d="M16 7.5l1.1 3.4h3.6l-2.9 2.1 1.1 3.4-3-1.8-3 1.8 1.1-3.4-2.9-2.1h3.6L16 7.5zm-6.2 9.2l.7 2.1h2.2l-1.8 1.3.7 2.1-1.8-1.1-1.8 1.1.7-2.1-1.8-1.3h2.2l.7-2.1zm12.4 0l.7 2.1h2.2l-1.8 1.3.7 2.1-1.8-1.1-1.8 1.1.7-2.1-1.8-1.3h2.2l.7-2.1z"
  />
</svg>
